HIERARCHY
ROOT Hips
{
	OFFSET 53.301201 -10.775116 100.663002
	CHANNELS 6 Xposition Yposition Zposition Xrotation Yrotation Zrotation
	JOINT spine
	{
		OFFSET 0.000000 -0.507026 8.817047
		CHANNELS 3 Xrotation Yrotation Zrotation
		JOINT spine1
		{
			OFFSET 0.000000 -0.000002 10.776604
			CHANNELS 3 Xrotation Yrotation Zrotation
			JOINT spine2
			{
				OFFSET 0.000000 -0.000001 10.325897
				CHANNELS 3 Xrotation Yrotation Zrotation
				JOINT Neck
				{
					OFFSET 0.000000 -1.263955 26.511002
					CHANNELS 3 Xrotation Yrotation Zrotation
					JOINT Head
					{
						OFFSET 0.000000 -0.000001 8.009659
						CHANNELS 3 Xrotation Yrotation Zrotation
						End Site
						{
							OFFSET 0.000000 6.393857 19.387894
						}
					}
				}
				JOINT RightShoulder
				{
					OFFSET -4.347950 0.605420 11.151199
					CHANNELS 3 Xrotation Yrotation Zrotation
					JOINT RightArm
					{
						OFFSET 0.000000 -0.000003 14.625793
						CHANNELS 3 Xrotation Yrotation Zrotation
						JOINT RightArmRoll
						{
							OFFSET 0.000000 -0.000001 7.383408
							CHANNELS 3 Xrotation Yrotation Zrotation
							JOINT RightForeArm
							{
								OFFSET 0.000000 -0.000004 21.505203
								CHANNELS 3 Xrotation Yrotation Zrotation
								JOINT RightForeArmRoll
								{
									OFFSET 0.000000 -0.000001 8.285324
									CHANNELS 3 Xrotation Yrotation Zrotation
									JOINT RightHand
									{
										OFFSET 0.000000 -0.000003 16.626801
										CHANNELS 3 Xrotation Yrotation Zrotation
										End Site
										{
											OFFSET 0.000000 0.000000 0.100006
										}
									}
								}
							}
						}
					}
				}
				JOINT LeftShoulder
				{
					OFFSET 4.347950 0.605420 11.151199
					CHANNELS 3 Xrotation Yrotation Zrotation
					JOINT LeftArm
					{
						OFFSET 0.000000 -0.000003 14.625793
						CHANNELS 3 Xrotation Yrotation Zrotation
						JOINT LeftArmRoll
						{
							OFFSET 0.000000 -0.000001 7.383408
							CHANNELS 3 Xrotation Yrotation Zrotation
							JOINT LeftForeArm
							{
								OFFSET 0.000000 -0.000004 21.505203
								CHANNELS 3 Xrotation Yrotation Zrotation
								JOINT LeftForeArmRoll
								{
									OFFSET 0.000000 -0.000001 8.285324
									CHANNELS 3 Xrotation Yrotation Zrotation
									JOINT LeftHand
									{
										OFFSET 0.000000 -0.000003 16.626801
										CHANNELS 3 Xrotation Yrotation Zrotation
										End Site
										{
											OFFSET 0.000000 0.000000 0.100006
										}
									}
								}
							}
						}
					}
				}
			}
		}
	}
	JOINT RightUpLeg
	{
		OFFSET -7.815102 1.202170 -1.433090
		CHANNELS 3 Xrotation Yrotation Zrotation
		JOINT RightUpLegRoll
		{
			OFFSET 0.000000 -0.000003 19.495903
			CHANNELS 3 Xrotation Yrotation Zrotation
			JOINT RightLeg
			{
				OFFSET 0.000000 0.000004 -24.142700
				CHANNELS 3 Xrotation Yrotation Zrotation
				JOINT RightLegRoll
				{
					OFFSET 0.000000 -0.000004 24.221703
					CHANNELS 3 Xrotation Yrotation Zrotation
					JOINT RightFoot
					{
						OFFSET 0.000000 -0.000004 20.160500
						CHANNELS 3 Xrotation Yrotation Zrotation
						JOINT RightToeBase
						{
							OFFSET 0.000000 -0.000003 16.853195
							CHANNELS 3 Xrotation Yrotation Zrotation
							End Site
							{
								OFFSET 0.007145 0.940780 8.161865
							}
						}
					}
				}
			}
		}
	}
	JOINT LeftUpLeg
	{
		OFFSET 7.815102 1.202170 -1.433090
		CHANNELS 3 Xrotation Yrotation Zrotation
		JOINT LeftUpLegRoll
		{
			OFFSET 0.000000 -0.000003 19.496002
			CHANNELS 3 Xrotation Yrotation Zrotation
			JOINT LeftLeg
			{
				OFFSET 0.000000 -0.000004 24.142601
				CHANNELS 3 Xrotation Yrotation Zrotation
				JOINT LeftLegRoll
				{
					OFFSET 0.000000 -0.000005 24.445602
					CHANNELS 3 Xrotation Yrotation Zrotation
					JOINT LeftFoot
					{
						OFFSET 0.000000 -0.000003 19.936600
						CHANNELS 3 Xrotation Yrotation Zrotation
						JOINT LeftToeBase
						{
							OFFSET 0.000000 -0.000003 16.853195
							CHANNELS 3 Xrotation Yrotation Zrotation
							End Site
							{
								OFFSET -0.032013 0.940780 8.161865
							}
						}
					}
				}
			}
		}
	}
}
MOTION
Frames: 12
Frame Time: 0.041667
52.823196 -11.150616 100.679001 -2.928249 0.363981 2.313009 -1.967144 -0.210856 -0.096399 0.068167 -0.407778 -0.197866 1.713253 -0.410061 -0.192912 28.920435 3.183412 0.245757 -7.798026 0.962398 0.601923 -5.031158 -66.327974 -6.629883 -45.818975 -113.403099 -30.152294 0.000002 0.000025 -0.000001 0.902945 -13.420097 -0.096493 0.000002 -0.000014 -3.000000 -5.000222 -7.998742 0.000171 -8.918988 62.390759 10.777673 -36.863859 114.100523 29.986668 0.000001 -0.000000 0.000001 3.812030 12.146972 0.012351 -0.000001 -0.000001 3.002219 -5.000229 7.998713 -0.000172 2.135391 -177.217946 0.237048 -179.999991 0.000005 -1.156012 173.897805 -1.154427 -0.439417 -0.000006 0.000001 0.076827 69.192043 6.916861 2.053268 25.669232 -7.354522 0.303371 1.326392 174.789377 0.966590 -0.000005 -0.000004 -1.156370 -7.003279 1.946083 0.413614 -0.000001 0.000001 -0.114690 69.745432 -6.911044 -2.014193 25.490695 7.355592 -0.048961 
52.824497 -11.152817 100.680008 -2.917388 0.363645 2.312622 -1.971364 -0.210531 -0.096738 0.059726 -0.409030 -0.198573 1.704813 -0.411330 -0.193603 28.948695 3.202858 0.245441 -7.804497 0.959489 0.604284 -4.985812 -66.330631 -6.578864 -45.764672 -113.362992 -30.075430 -0.000001 0.000024 -0.000002 0.991621 -13.401668 -0.089809 0.000002 -0.000015 -3.000001 -5.000221 -7.998741 0.000169 -8.905034 62.421761 10.763582 -36.836054 114.039891 29.933581 0.000001 0.000000 0.000001 3.872152 12.137057 0.008002 -0.000001 -0.000001 3.002220 -5.000232 7.998713 -0.000172 2.121626 -177.216894 0.236584 -179.999991 0.000005 -1.156012 173.897135 -1.155417 -0.438539 -0.000005 0.000001 0.076826 69.189605 6.916846 2.053218 25.669340 -7.354515 0.304364 1.312287 174.788366 0.966098 -0.000005 -0.000005 -1.156370 -7.005012 1.948974 0.413620 -0.000001 0.000001 -0.114690 69.743642 -6.911053 -2.014106 25.490589 7.355591 -0.047394 
52.812595 -11.074916 100.671997 -2.905618 0.363478 2.312709 -1.975832 -0.210177 -0.097181 0.050779 -0.410326 -0.199487 1.695864 -0.412646 -0.194503 28.978461 3.222544 0.245026 -7.811915 0.956478 0.606629 -4.939953 -66.332502 -6.527215 -45.711123 -113.325870 -29.997453 0.000000 0.000025 -0.000002 1.073123 -13.382438 -0.083873 0.000003 -0.000015 -3.000000 -5.000222 -7.998742 0.000170 -8.889957 62.453330 10.748232 -36.811069 113.981247 29.881319 0.000000 0.000001 0.000002 3.927328 12.125807 0.004230 -0.000001 -0.000001 3.002220 -5.000232 7.998713 -0.000172 2.106922 -177.216881 0.235784 -179.999991 0.000005 -1.156012 173.896780 -1.157400 -0.438758 -0.000005 0.000001 0.076826 69.186647 6.916838 2.053302 25.669342 -7.354515 0.305463 1.296583 174.788325 0.965294 -0.000005 -0.000004 -1.156370 -7.007319 1.952270 0.413629 -0.000001 0.000000 -0.114690 69.741511 -6.911050 -2.014237 25.490490 7.355590 -0.045667 
52.815098 -11.103414 100.674004 -2.893208 0.363429 2.313127 -1.980482 -0.209802 -0.097695 0.041475 -0.411653 -0.200548 1.686564 -0.413997 -0.195546 29.009248 3.242402 0.244532 -7.819995 0.953394 0.608963 -4.893834 -66.333957 -6.475226 -45.660545 -113.289930 -29.921382 -0.000000 0.000024 -0.000001 1.149597 -13.362410 -0.078486 0.000003 -0.000015 -3.000002 -5.000218 -7.998743 0.000170 -8.874119 62.485371 10.732024 -36.790619 113.922699 29.832412 0.000002 -0.000000 0.000001 3.979050 12.113702 0.000861 -0.000000 -0.000001 3.002220 -5.000231 7.998714 -0.000172 2.091576 -177.215842 0.234812 -179.999991 0.000005 -1.156012 173.896616 -1.159396 -0.438975 -0.000006 0.000002 0.076827 69.183369 6.916851 2.053310 25.669441 -7.354521 0.306652 1.279769 174.786303 0.964198 -0.000005 -0.000005 -1.156370 -7.010036 1.955841 0.413643 -0.000001 0.000000 -0.114690 69.739401 -6.911045 -2.014169 25.490286 7.355590 -0.043806 
52.821095 -11.126312 100.675003 -2.880447 0.363449 2.313727 -1.985245 -0.209414 -0.098250 0.031968 -0.412998 -0.201692 1.677055 -0.415365 -0.196674 29.040745 3.262349 0.243988 -7.828440 0.950268 0.611288 -4.847486 -66.335016 -6.422952 -45.609831 -113.255321 -29.844385 -0.000001 0.000024 -0.000002 1.223193 -13.342070 -0.073427 0.000005 -0.000014 -3.000000 -5.000220 -7.998741 0.000170 -8.857760 62.517534 10.715246 -36.770593 113.865448 29.782992 0.000002 -0.000000 0.000001 4.028801 12.101113 -0.002269 -0.000002 -0.000001 3.002220 -5.000229 7.998714 -0.000172 2.075833 -177.215829 0.233684 -179.999991 0.000005 -1.156011 173.896589 -1.160388 -0.439082 -0.000005 0.000002 0.076827 69.179885 6.916852 2.053326 25.669640 -7.354515 0.307892 1.262306 174.785251 0.963002 -0.000005 -0.000005 -1.156370 -7.012981 1.959560 0.413656 -0.000001 0.000001 -0.114690 69.737167 -6.911040 -2.014207 25.490085 7.355583 -0.041882 
52.808895 -11.104513 100.669006 -2.867590 0.363486 2.314377 -1.990016 -0.209024 -0.098815 0.022410 -0.414347 -0.202856 1.667494 -0.416738 -0.197822 29.072345 3.282322 0.243422 -7.836991 0.947131 0.613612 -4.801107 -66.336054 -6.370629 -45.559366 -113.220856 -29.767491 0.000001 0.000024 -0.000002 1.296047 -13.321614 -0.068494 0.000006 -0.000015 -3.000001 -5.000218 -7.998744 0.000170 -8.841298 62.549896 10.698332 -36.750929 113.808307 29.733746 0.000003 -0.000001 0.000001 4.078041 12.088326 -0.005313 -0.000001 -0.000001 3.002221 -5.000227 7.998714 -0.000173 2.060015 -177.215801 0.232526 -179.999991 0.000005 -1.156012 173.896562 -1.162371 -0.439294 -0.000005 0.000001 0.076827 69.176402 6.916852 2.053246 25.669750 -7.354519 0.309139 1.244685 174.783216 0.961740 -0.000005 -0.000005 -1.156370 -7.015980 1.963331 0.413672 -0.000001 0.000001 -0.114690 69.734852 -6.911062 -2.014156 25.489892 7.355587 -0.039952 
52.816795 -11.137711 100.668999 -2.854915 0.363489 2.314937 -1.994745 -0.208639 -0.099360 0.012954 -0.415686 -0.203980 1.658044 -0.418102 -0.198930 29.103747 3.302245 0.242839 -7.845350 0.944014 0.615937 -4.754774 -66.337072 -6.318391 -45.508024 -113.186138 -29.689968 0.000003 0.000025 -0.000001 1.370341 -13.301333 -0.063476 0.000003 -0.000015 -3.000001 -5.000219 -7.998741 0.000169 -8.825001 62.582045 10.681617 -36.730172 113.750886 29.683766 0.000001 -0.000000 0.000001 4.128256 12.075817 -0.008447 -0.000001 -0.000001 3.002219 -5.000229 7.998714 -0.000172 2.044376 -177.215760 0.231428 -179.999991 0.000005 -1.156012 173.896507 -1.163376 -0.438405 -0.000006 0.000001 0.076827 69.173021 6.916861 2.053256 25.669844 -7.354510 0.310351 1.227387 174.782191 0.960582 -0.000005 -0.000005 -1.156370 -7.018877 1.967020 0.413688 -0.000001 0.000000 -0.114690 69.732625 -6.911054 -2.014194 25.489684 7.355583 -0.038048 
52.823597 -11.129613 100.669998 -2.842696 0.363407 2.315255 -1.999345 -0.208270 -0.099853 0.003752 -0.417003 -0.205000 1.648844 -0.419441 -0.199933 29.134250 3.322053 0.242278 -7.853233 0.940948 0.618269 -4.708704 -66.338574 -6.266466 -45.454294 -113.150608 -29.610957 0.000003 0.000024 -0.000002 1.448195 -13.281608 -0.058167 0.000004 -0.000015 -3.000001 -5.000220 -7.998741 0.000170 -8.809208 62.613854 10.665442 -36.707318 113.692884 29.632574 0.000001 -0.000000 0.000001 4.180948 12.063959 -0.011833 -0.000000 -0.000001 3.002220 -5.000231 7.998713 -0.000172 2.029212 -177.214749 0.230514 -179.999991 0.000005 -1.156012 173.896288 -1.165359 -0.438622 -0.000006 0.000001 0.076826 69.169845 6.916840 2.053253 25.669944 -7.354515 0.311519 1.210891 174.781167 0.959581 -0.000005 -0.000005 -1.156370 -7.021473 1.970502 0.413700 -0.000001 0.000001 -0.114690 69.730501 -6.911051 -2.014225 25.489482 7.355584 -0.036216 
52.825497 -11.101213 100.668999 -2.831199 0.363190 2.315202 -2.003746 -0.207924 -0.100264 -0.005043 -0.418284 -0.205855 1.640045 -0.420742 -0.200774 29.163552 3.341667 0.241769 -7.860380 0.937964 0.620614 -4.662947 -66.340555 -6.214964 -45.400233 -113.112400 -29.533041 -0.000000 0.000024 -0.000001 1.531766 -13.262631 -0.052365 0.000002 -0.000014 -3.000001 -5.000220 -7.998744 0.000170 -8.794311 62.645307 10.650285 -36.680681 113.633871 29.579090 -0.000001 -0.000001 0.000002 4.237587 12.053132 -0.015640 0.000000 -0.000001 3.002220 -5.000229 7.998713 -0.000172 2.014784 -177.214736 0.229803 -179.999991 0.000005 -1.156011 173.895838 -1.167340 -0.438843 -0.000005 0.000002 0.076826 69.167010 6.916872 2.053234 25.670043 -7.354508 0.312601 1.195668 174.780129 0.958865 -0.000005 -0.000005 -1.156370 -7.023608 1.973680 0.413712 -0.000001 0.000000 -0.114690 69.728486 -6.911050 -2.014249 25.489281 7.355588 -0.034528 
52.821796 -11.107815 100.669014 -2.820696 0.362786 2.314625 -2.007854 -0.207610 -0.100561 -0.013279 -0.419516 -0.206482 1.631804 -0.421990 -0.201386 29.191146 3.361019 0.241329 -7.866472 0.935092 0.622978 -4.617695 -66.343403 -6.164095 -45.341333 -113.072504 -29.451984 0.000002 0.000024 -0.000001 1.623201 -13.244773 -0.045862 0.000004 -0.000015 -3.000002 -5.000220 -7.998744 0.000169 -8.780566 62.676083 10.636410 -36.648992 113.573499 29.522554 0.000001 -0.000000 0.000001 4.299656 12.043708 -0.020031 -0.000000 -0.000001 3.002220 -5.000230 7.998713 -0.000172 2.001401 -177.213711 0.229455 -179.999991 0.000005 -1.156012 173.895059 -1.169336 -0.439073 -0.000005 0.000002 0.076827 69.164674 6.916860 2.053279 25.670047 -7.354508 0.313541 1.182204 174.780101 0.958530 -0.000005 -0.000004 -1.156370 -7.025110 1.976423 0.413719 -0.000001 0.000001 -0.114690 69.726690 -6.911058 -2.014163 25.489277 7.355580 -0.033044 
52.817696 -11.132117 100.669998 -2.811466 0.362143 2.313394 -2.011623 -0.207338 -0.100714 -0.020804 -0.420686 -0.206819 1.624284 -0.423172 -0.201709 29.216623 3.380046 0.240970 -7.871254 0.932363 0.625362 -4.573038 -66.347228 -6.114003 -45.279619 -113.029030 -29.370548 0.000001 0.000025 0.000000 1.724657 -13.228319 -0.038456 0.000002 -0.000014 -3.000001 -5.000220 -7.998743 0.000170 -8.768307 62.705952 10.624192 -36.612157 113.510572 29.463565 0.000001 -0.000000 0.000001 4.368619 12.036157 -0.025177 -0.000002 -0.000001 3.002220 -5.000229 7.998714 -0.000172 1.989320 -177.212687 0.229524 -179.999991 0.000005 -1.156012 173.893857 -1.170325 -0.438192 -0.000005 0.000001 0.076827 69.162994 6.916879 2.053288 25.669948 -7.354515 0.314319 1.170970 174.780074 0.958672 -0.000005 -0.000004 -1.156370 -7.025790 1.978613 0.413720 -0.000001 0.000000 -0.114690 69.725201 -6.911041 -2.014152 25.489182 7.355585 -0.031770 
52.820595 -11.127315 100.668999 -2.803763 0.361211 2.311360 -2.014955 -0.207118 -0.100693 -0.027464 -0.421779 -0.206803 1.617625 -0.424273 -0.201681 29.239493 3.398660 0.240742 -7.874443 0.929809 0.627775 -4.529131 -66.352228 -6.064860 -45.215019 -112.980679 -29.289255 0.000002 0.000024 -0.000002 1.838254 -13.213535 -0.029948 0.000004 -0.000014 -3.000001 -5.000220 -7.998741 0.000169 -8.757932 62.734898 10.614083 -36.567480 113.445569 29.399866 0.000000 -0.000000 0.000000 4.445992 12.030653 -0.031239 -0.000002 -0.000001 3.002219 -5.000230 7.998713 -0.000172 1.978839 -177.210665 0.230135 -179.999991 0.000005 -1.156012 173.892149 -1.172304 -0.438439 -0.000005 0.000001 0.076827 69.162127 6.916840 2.053334 25.669743 -7.354509 0.314885 1.162449 174.781085 0.959417 -0.000005 -0.000005 -1.156370 -7.025496 1.980132 0.413717 -0.000001 0.000001 -0.114690 69.723937 -6.911066 -2.014136 25.489277 7.355587 -0.030808 
